<mxfile host="app.diagrams.net" modified="2022-11-25T19:35:31.479Z" agent="5.0 (Macintosh; Intel Mac OS X 10_15_7) AppleWebKit/537.36 (KHTML, like Gecko) Chrome/107.0.0.0 Safari/537.36" etag="OItIhVXk2yuvHTtCqr6H" version="20.6.0" type="github">
  <diagram id="C5RBs43oDa-KdzZeNtuy" name="Page-1">
    <mxGraphModel dx="1600" dy="817" grid="1" gridSize="10" guides="1" tooltips="1" connect="1" arrows="1" fold="1" page="1" pageScale="1" pageWidth="827" pageHeight="1169" math="0" shadow="0">
      <root>
        <mxCell id="WIyWlLk6GJQsqaUBKTNV-0" />
        <mxCell id="WIyWlLk6GJQsqaUBKTNV-1" parent="WIyWlLk6GJQsqaUBKTNV-0" />
        <mxCell id="xKXgVrUjVkph2GvwJkYo-69" value="" style="rounded=0;whiteSpace=wrap;html=1;shadow=0;strokeColor=#3333FF;fillColor=#FFFFFF;" parent="WIyWlLk6GJQsqaUBKTNV-1" vertex="1">
          <mxGeometry width="1210" height="590" as="geometry" />
        </mxCell>
        <mxCell id="xKXgVrUjVkph2GvwJkYo-58" style="edgeStyle=orthogonalEdgeStyle;rounded=0;orthogonalLoop=1;jettySize=auto;html=1;exitX=0.5;exitY=1;exitDx=0;exitDy=0;entryX=1;entryY=0;entryDx=0;entryDy=0;strokeColor=#3333FF;shadow=0;" parent="WIyWlLk6GJQsqaUBKTNV-1" source="zkfFHV4jXpPFQw0GAbJ--0" target="xKXgVrUjVkph2GvwJkYo-19" edge="1">
          <mxGeometry relative="1" as="geometry" />
        </mxCell>
        <mxCell id="xKXgVrUjVkph2GvwJkYo-59" style="edgeStyle=orthogonalEdgeStyle;rounded=0;orthogonalLoop=1;jettySize=auto;html=1;exitX=0.75;exitY=1;exitDx=0;exitDy=0;entryX=0;entryY=0;entryDx=0;entryDy=0;strokeColor=#3333FF;shadow=0;" parent="WIyWlLk6GJQsqaUBKTNV-1" source="zkfFHV4jXpPFQw0GAbJ--0" target="xKXgVrUjVkph2GvwJkYo-20" edge="1">
          <mxGeometry relative="1" as="geometry" />
        </mxCell>
        <mxCell id="xKXgVrUjVkph2GvwJkYo-60" style="edgeStyle=orthogonalEdgeStyle;rounded=0;orthogonalLoop=1;jettySize=auto;html=1;exitX=0.5;exitY=1;exitDx=0;exitDy=0;entryX=1;entryY=0.25;entryDx=0;entryDy=0;strokeColor=#3333FF;shadow=0;" parent="WIyWlLk6GJQsqaUBKTNV-1" source="zkfFHV4jXpPFQw0GAbJ--0" target="xKXgVrUjVkph2GvwJkYo-21" edge="1">
          <mxGeometry relative="1" as="geometry">
            <Array as="points">
              <mxPoint x="190" y="200" />
              <mxPoint x="190" y="335" />
            </Array>
          </mxGeometry>
        </mxCell>
        <mxCell id="xKXgVrUjVkph2GvwJkYo-63" style="edgeStyle=orthogonalEdgeStyle;rounded=0;orthogonalLoop=1;jettySize=auto;html=1;exitX=0.5;exitY=1;exitDx=0;exitDy=0;entryX=0;entryY=0.25;entryDx=0;entryDy=0;strokeColor=#3333FF;shadow=0;" parent="WIyWlLk6GJQsqaUBKTNV-1" source="zkfFHV4jXpPFQw0GAbJ--0" target="xKXgVrUjVkph2GvwJkYo-18" edge="1">
          <mxGeometry relative="1" as="geometry" />
        </mxCell>
        <mxCell id="xKXgVrUjVkph2GvwJkYo-66" style="edgeStyle=orthogonalEdgeStyle;rounded=0;orthogonalLoop=1;jettySize=auto;html=1;exitX=0;exitY=0.75;exitDx=0;exitDy=0;entryX=0;entryY=0.25;entryDx=0;entryDy=0;strokeColor=#3333FF;shadow=0;" parent="WIyWlLk6GJQsqaUBKTNV-1" source="zkfFHV4jXpPFQw0GAbJ--0" target="xKXgVrUjVkph2GvwJkYo-17" edge="1">
          <mxGeometry relative="1" as="geometry">
            <Array as="points">
              <mxPoint x="140" y="190" />
              <mxPoint x="40" y="190" />
              <mxPoint x="40" y="405" />
            </Array>
          </mxGeometry>
        </mxCell>
        <mxCell id="xKXgVrUjVkph2GvwJkYo-67" style="edgeStyle=orthogonalEdgeStyle;rounded=0;orthogonalLoop=1;jettySize=auto;html=1;exitX=0;exitY=0.5;exitDx=0;exitDy=0;entryX=0.25;entryY=1;entryDx=0;entryDy=0;strokeColor=#3333FF;shadow=0;" parent="WIyWlLk6GJQsqaUBKTNV-1" source="zkfFHV4jXpPFQw0GAbJ--0" target="xKXgVrUjVkph2GvwJkYo-23" edge="1">
          <mxGeometry relative="1" as="geometry">
            <Array as="points">
              <mxPoint x="140" y="170" />
              <mxPoint x="20" y="170" />
              <mxPoint x="20" y="480" />
              <mxPoint x="250" y="480" />
            </Array>
          </mxGeometry>
        </mxCell>
        <mxCell id="7rGC_AcFOtSBEldsGUxv-23" style="edgeStyle=orthogonalEdgeStyle;rounded=0;orthogonalLoop=1;jettySize=auto;html=1;exitX=1;exitY=0.25;exitDx=0;exitDy=0;entryX=-0.008;entryY=0.534;entryDx=0;entryDy=0;entryPerimeter=0;strokeColor=#3333FF;" parent="WIyWlLk6GJQsqaUBKTNV-1" source="zkfFHV4jXpPFQw0GAbJ--0" target="xKXgVrUjVkph2GvwJkYo-25" edge="1">
          <mxGeometry relative="1" as="geometry">
            <Array as="points">
              <mxPoint x="260" y="120" />
              <mxPoint x="390" y="120" />
              <mxPoint x="390" y="316" />
            </Array>
          </mxGeometry>
        </mxCell>
        <mxCell id="zkfFHV4jXpPFQw0GAbJ--0" value="package interpreter" style="swimlane;fontStyle=2;align=center;verticalAlign=top;childLayout=stackLayout;horizontal=1;startSize=26;horizontalStack=0;resizeParent=1;resizeLast=0;collapsible=1;marginBottom=0;rounded=0;shadow=0;strokeWidth=1;strokeColor=#3333FF;" parent="WIyWlLk6GJQsqaUBKTNV-1" vertex="1">
          <mxGeometry x="140" y="40" width="120" height="160" as="geometry">
            <mxRectangle x="230" y="140" width="160" height="26" as="alternateBounds" />
          </mxGeometry>
        </mxCell>
        <mxCell id="xKXgVrUjVkph2GvwJkYo-1" value="" style="html=1;verticalLabelPosition=bottom;align=center;labelBackgroundColor=#ffffff;verticalAlign=top;strokeWidth=2;strokeColor=#3333FF;shadow=0;dashed=0;shape=mxgraph.ios7.icons.folder;fillColor=#FFD966;" parent="zkfFHV4jXpPFQw0GAbJ--0" vertex="1">
          <mxGeometry y="26" width="120" height="94" as="geometry" />
        </mxCell>
        <mxCell id="xKXgVrUjVkph2GvwJkYo-17" value="RunTimeStack.java" style="rounded=0;whiteSpace=wrap;html=1;strokeColor=#3333FF;shadow=0;" parent="WIyWlLk6GJQsqaUBKTNV-1" vertex="1">
          <mxGeometry x="50" y="390" width="120" height="60" as="geometry" />
        </mxCell>
        <mxCell id="xKXgVrUjVkph2GvwJkYo-18" value="Program.java" style="rounded=0;whiteSpace=wrap;html=1;strokeColor=#3333FF;shadow=0;" parent="WIyWlLk6GJQsqaUBKTNV-1" vertex="1">
          <mxGeometry x="220" y="320" width="120" height="60" as="geometry" />
        </mxCell>
        <mxCell id="xKXgVrUjVkph2GvwJkYo-19" value="ByteCoderLoader.java" style="rounded=0;whiteSpace=wrap;html=1;strokeColor=#3333FF;shadow=0;" parent="WIyWlLk6GJQsqaUBKTNV-1" vertex="1">
          <mxGeometry x="60" y="230" width="120" height="60" as="geometry" />
        </mxCell>
        <mxCell id="xKXgVrUjVkph2GvwJkYo-20" value="CodeTable.java" style="rounded=0;whiteSpace=wrap;html=1;strokeColor=#3333FF;shadow=0;" parent="WIyWlLk6GJQsqaUBKTNV-1" vertex="1">
          <mxGeometry x="210" y="230" width="120" height="60" as="geometry" />
        </mxCell>
        <mxCell id="xKXgVrUjVkph2GvwJkYo-21" value="Interpreter.java" style="rounded=0;whiteSpace=wrap;html=1;strokeColor=#3333FF;shadow=0;" parent="WIyWlLk6GJQsqaUBKTNV-1" vertex="1">
          <mxGeometry x="50" y="320" width="120" height="60" as="geometry" />
        </mxCell>
        <mxCell id="xKXgVrUjVkph2GvwJkYo-23" value="VirtualMachine.java" style="rounded=0;whiteSpace=wrap;html=1;strokeColor=#3333FF;shadow=0;" parent="WIyWlLk6GJQsqaUBKTNV-1" vertex="1">
          <mxGeometry x="220" y="400" width="120" height="60" as="geometry" />
        </mxCell>
        <mxCell id="7rGC_AcFOtSBEldsGUxv-7" style="edgeStyle=orthogonalEdgeStyle;rounded=0;orthogonalLoop=1;jettySize=auto;html=1;exitX=0.25;exitY=0;exitDx=0;exitDy=0;entryX=0.75;entryY=1;entryDx=0;entryDy=0;strokeColor=#3333FF;" parent="WIyWlLk6GJQsqaUBKTNV-1" source="xKXgVrUjVkph2GvwJkYo-24" target="xKXgVrUjVkph2GvwJkYo-28" edge="1">
          <mxGeometry relative="1" as="geometry">
            <Array as="points">
              <mxPoint x="730" y="150" />
              <mxPoint x="720" y="150" />
            </Array>
          </mxGeometry>
        </mxCell>
        <mxCell id="7rGC_AcFOtSBEldsGUxv-8" style="edgeStyle=orthogonalEdgeStyle;rounded=0;orthogonalLoop=1;jettySize=auto;html=1;exitX=0.75;exitY=0;exitDx=0;exitDy=0;strokeColor=#3333FF;" parent="WIyWlLk6GJQsqaUBKTNV-1" source="xKXgVrUjVkph2GvwJkYo-24" edge="1">
          <mxGeometry relative="1" as="geometry">
            <Array as="points">
              <mxPoint x="780" y="240" />
              <mxPoint x="780" y="100" />
            </Array>
            <mxPoint x="790" y="100" as="targetPoint" />
          </mxGeometry>
        </mxCell>
        <mxCell id="7rGC_AcFOtSBEldsGUxv-9" style="edgeStyle=orthogonalEdgeStyle;rounded=0;orthogonalLoop=1;jettySize=auto;html=1;exitX=1;exitY=0;exitDx=0;exitDy=0;strokeColor=#3333FF;" parent="WIyWlLk6GJQsqaUBKTNV-1" source="xKXgVrUjVkph2GvwJkYo-24" target="xKXgVrUjVkph2GvwJkYo-32" edge="1">
          <mxGeometry relative="1" as="geometry">
            <Array as="points">
              <mxPoint x="820" y="250" />
              <mxPoint x="860" y="250" />
              <mxPoint x="860" y="160" />
              <mxPoint x="970" y="160" />
              <mxPoint x="970" y="100" />
            </Array>
          </mxGeometry>
        </mxCell>
        <mxCell id="7rGC_AcFOtSBEldsGUxv-10" style="edgeStyle=orthogonalEdgeStyle;rounded=0;orthogonalLoop=1;jettySize=auto;html=1;exitX=1;exitY=0;exitDx=0;exitDy=0;strokeColor=#3333FF;" parent="WIyWlLk6GJQsqaUBKTNV-1" source="xKXgVrUjVkph2GvwJkYo-24" target="xKXgVrUjVkph2GvwJkYo-37" edge="1">
          <mxGeometry relative="1" as="geometry">
            <Array as="points">
              <mxPoint x="820" y="280" />
              <mxPoint x="900" y="280" />
              <mxPoint x="900" y="220" />
              <mxPoint x="970" y="220" />
              <mxPoint x="970" y="200" />
            </Array>
          </mxGeometry>
        </mxCell>
        <mxCell id="7rGC_AcFOtSBEldsGUxv-11" style="edgeStyle=orthogonalEdgeStyle;rounded=0;orthogonalLoop=1;jettySize=auto;html=1;exitX=1;exitY=0.75;exitDx=0;exitDy=0;entryX=0;entryY=0.75;entryDx=0;entryDy=0;strokeColor=#3333FF;" parent="WIyWlLk6GJQsqaUBKTNV-1" source="xKXgVrUjVkph2GvwJkYo-24" target="xKXgVrUjVkph2GvwJkYo-36" edge="1">
          <mxGeometry relative="1" as="geometry">
            <Array as="points">
              <mxPoint x="820" y="320" />
              <mxPoint x="900" y="320" />
              <mxPoint x="900" y="305" />
              <mxPoint x="960" y="305" />
              <mxPoint x="960" y="285" />
            </Array>
          </mxGeometry>
        </mxCell>
        <mxCell id="7rGC_AcFOtSBEldsGUxv-12" style="edgeStyle=orthogonalEdgeStyle;rounded=0;orthogonalLoop=1;jettySize=auto;html=1;exitX=1;exitY=0.75;exitDx=0;exitDy=0;entryX=0;entryY=0.5;entryDx=0;entryDy=0;strokeColor=#3333FF;" parent="WIyWlLk6GJQsqaUBKTNV-1" source="xKXgVrUjVkph2GvwJkYo-24" target="xKXgVrUjVkph2GvwJkYo-38" edge="1">
          <mxGeometry relative="1" as="geometry" />
        </mxCell>
        <mxCell id="7rGC_AcFOtSBEldsGUxv-14" style="edgeStyle=orthogonalEdgeStyle;rounded=0;orthogonalLoop=1;jettySize=auto;html=1;exitX=1;exitY=1;exitDx=0;exitDy=0;entryX=0;entryY=0.5;entryDx=0;entryDy=0;strokeColor=#3333FF;" parent="WIyWlLk6GJQsqaUBKTNV-1" source="xKXgVrUjVkph2GvwJkYo-24" target="xKXgVrUjVkph2GvwJkYo-34" edge="1">
          <mxGeometry relative="1" as="geometry">
            <Array as="points">
              <mxPoint x="860" y="400" />
              <mxPoint x="860" y="430" />
              <mxPoint x="950" y="430" />
              <mxPoint x="950" y="540" />
            </Array>
          </mxGeometry>
        </mxCell>
        <mxCell id="7rGC_AcFOtSBEldsGUxv-15" style="edgeStyle=orthogonalEdgeStyle;rounded=0;orthogonalLoop=1;jettySize=auto;html=1;exitX=0.75;exitY=1;exitDx=0;exitDy=0;strokeColor=#3333FF;" parent="WIyWlLk6GJQsqaUBKTNV-1" source="xKXgVrUjVkph2GvwJkYo-24" target="xKXgVrUjVkph2GvwJkYo-35" edge="1">
          <mxGeometry relative="1" as="geometry" />
        </mxCell>
        <mxCell id="7rGC_AcFOtSBEldsGUxv-16" style="edgeStyle=orthogonalEdgeStyle;rounded=0;orthogonalLoop=1;jettySize=auto;html=1;exitX=0.25;exitY=1;exitDx=0;exitDy=0;strokeColor=#3333FF;" parent="WIyWlLk6GJQsqaUBKTNV-1" source="xKXgVrUjVkph2GvwJkYo-24" target="xKXgVrUjVkph2GvwJkYo-33" edge="1">
          <mxGeometry relative="1" as="geometry">
            <Array as="points">
              <mxPoint x="750" y="400" />
            </Array>
          </mxGeometry>
        </mxCell>
        <mxCell id="7rGC_AcFOtSBEldsGUxv-21" style="edgeStyle=orthogonalEdgeStyle;rounded=0;orthogonalLoop=1;jettySize=auto;html=1;exitX=0;exitY=0;exitDx=0;exitDy=0;entryX=1;entryY=0.75;entryDx=0;entryDy=0;strokeColor=#3333FF;" parent="WIyWlLk6GJQsqaUBKTNV-1" source="xKXgVrUjVkph2GvwJkYo-24" target="xKXgVrUjVkph2GvwJkYo-26" edge="1">
          <mxGeometry relative="1" as="geometry">
            <Array as="points">
              <mxPoint x="710" y="240" />
              <mxPoint x="710" y="160" />
              <mxPoint x="620" y="160" />
              <mxPoint x="620" y="115" />
            </Array>
          </mxGeometry>
        </mxCell>
        <mxCell id="7rGC_AcFOtSBEldsGUxv-22" style="edgeStyle=orthogonalEdgeStyle;rounded=0;orthogonalLoop=1;jettySize=auto;html=1;exitX=0;exitY=0;exitDx=0;exitDy=0;entryX=1;entryY=0.5;entryDx=0;entryDy=0;strokeColor=#3333FF;" parent="WIyWlLk6GJQsqaUBKTNV-1" source="xKXgVrUjVkph2GvwJkYo-24" target="xKXgVrUjVkph2GvwJkYo-29" edge="1">
          <mxGeometry relative="1" as="geometry">
            <Array as="points">
              <mxPoint x="700" y="360" />
            </Array>
          </mxGeometry>
        </mxCell>
        <mxCell id="HlyHnyiYGs_CymbgIFr4-4" style="edgeStyle=orthogonalEdgeStyle;rounded=0;orthogonalLoop=1;jettySize=auto;html=1;exitX=1;exitY=0.75;exitDx=0;exitDy=0;entryX=0;entryY=0.5;entryDx=0;entryDy=0;strokeColor=#3333FF;" edge="1" parent="WIyWlLk6GJQsqaUBKTNV-1" source="xKXgVrUjVkph2GvwJkYo-24" target="xKXgVrUjVkph2GvwJkYo-39">
          <mxGeometry relative="1" as="geometry">
            <Array as="points">
              <mxPoint x="820" y="380" />
              <mxPoint x="900" y="380" />
              <mxPoint x="900" y="420" />
              <mxPoint x="960" y="420" />
              <mxPoint x="960" y="450" />
            </Array>
          </mxGeometry>
        </mxCell>
        <mxCell id="HlyHnyiYGs_CymbgIFr4-5" style="edgeStyle=orthogonalEdgeStyle;rounded=0;orthogonalLoop=1;jettySize=auto;html=1;exitX=0;exitY=0.25;exitDx=0;exitDy=0;entryX=1;entryY=0.5;entryDx=0;entryDy=0;strokeColor=#3333FF;" edge="1" parent="WIyWlLk6GJQsqaUBKTNV-1" source="xKXgVrUjVkph2GvwJkYo-24" target="HlyHnyiYGs_CymbgIFr4-3">
          <mxGeometry relative="1" as="geometry">
            <Array as="points">
              <mxPoint x="670" y="280" />
              <mxPoint x="670" y="190" />
            </Array>
          </mxGeometry>
        </mxCell>
        <mxCell id="HlyHnyiYGs_CymbgIFr4-6" style="edgeStyle=orthogonalEdgeStyle;rounded=0;orthogonalLoop=1;jettySize=auto;html=1;exitX=0;exitY=0.25;exitDx=0;exitDy=0;strokeColor=#3333FF;" edge="1" parent="WIyWlLk6GJQsqaUBKTNV-1" source="xKXgVrUjVkph2GvwJkYo-24" target="HlyHnyiYGs_CymbgIFr4-1">
          <mxGeometry relative="1" as="geometry">
            <Array as="points">
              <mxPoint x="700" y="290" />
            </Array>
          </mxGeometry>
        </mxCell>
        <mxCell id="HlyHnyiYGs_CymbgIFr4-7" style="edgeStyle=orthogonalEdgeStyle;rounded=0;orthogonalLoop=1;jettySize=auto;html=1;exitX=0;exitY=1;exitDx=0;exitDy=0;strokeColor=#3333FF;" edge="1" parent="WIyWlLk6GJQsqaUBKTNV-1" source="xKXgVrUjVkph2GvwJkYo-24" target="HlyHnyiYGs_CymbgIFr4-0">
          <mxGeometry relative="1" as="geometry">
            <Array as="points">
              <mxPoint x="700" y="380" />
              <mxPoint x="560" y="380" />
              <mxPoint x="560" y="400" />
              <mxPoint x="480" y="400" />
            </Array>
          </mxGeometry>
        </mxCell>
        <mxCell id="HlyHnyiYGs_CymbgIFr4-8" style="edgeStyle=orthogonalEdgeStyle;rounded=0;orthogonalLoop=1;jettySize=auto;html=1;exitX=0;exitY=1;exitDx=0;exitDy=0;entryX=0.25;entryY=0;entryDx=0;entryDy=0;strokeColor=#3333FF;" edge="1" parent="WIyWlLk6GJQsqaUBKTNV-1" source="xKXgVrUjVkph2GvwJkYo-24" target="xKXgVrUjVkph2GvwJkYo-31">
          <mxGeometry relative="1" as="geometry">
            <Array as="points">
              <mxPoint x="700" y="390" />
              <mxPoint x="580" y="390" />
              <mxPoint x="580" y="490" />
              <mxPoint x="450" y="490" />
            </Array>
          </mxGeometry>
        </mxCell>
        <mxCell id="HlyHnyiYGs_CymbgIFr4-9" style="edgeStyle=orthogonalEdgeStyle;rounded=0;orthogonalLoop=1;jettySize=auto;html=1;exitX=0.25;exitY=1;exitDx=0;exitDy=0;strokeColor=#3333FF;" edge="1" parent="WIyWlLk6GJQsqaUBKTNV-1" source="xKXgVrUjVkph2GvwJkYo-24" target="xKXgVrUjVkph2GvwJkYo-30">
          <mxGeometry relative="1" as="geometry">
            <Array as="points">
              <mxPoint x="710" y="400" />
              <mxPoint x="710" y="455" />
              <mxPoint x="620" y="455" />
            </Array>
          </mxGeometry>
        </mxCell>
        <mxCell id="xKXgVrUjVkph2GvwJkYo-24" value="package interpreter.bytecode" style="swimlane;fontStyle=2;align=center;verticalAlign=top;childLayout=stackLayout;horizontal=1;startSize=26;horizontalStack=0;resizeParent=1;resizeLast=0;collapsible=1;marginBottom=0;rounded=0;shadow=0;strokeWidth=1;strokeColor=#3333FF;" parent="WIyWlLk6GJQsqaUBKTNV-1" vertex="1">
          <mxGeometry x="700" y="240" width="120" height="160" as="geometry">
            <mxRectangle x="230" y="140" width="160" height="26" as="alternateBounds" />
          </mxGeometry>
        </mxCell>
        <mxCell id="xKXgVrUjVkph2GvwJkYo-25" value="" style="html=1;verticalLabelPosition=bottom;align=center;labelBackgroundColor=#ffffff;verticalAlign=top;strokeWidth=2;strokeColor=#3333FF;shadow=0;dashed=0;shape=mxgraph.ios7.icons.folder;fillColor=#FFD966;" parent="xKXgVrUjVkph2GvwJkYo-24" vertex="1">
          <mxGeometry y="26" width="120" height="94" as="geometry" />
        </mxCell>
        <mxCell id="xKXgVrUjVkph2GvwJkYo-26" value="ArgsCode.java" style="rounded=0;whiteSpace=wrap;html=1;strokeColor=#3333FF;shadow=0;" parent="WIyWlLk6GJQsqaUBKTNV-1" vertex="1">
          <mxGeometry x="420" y="70" width="120" height="60" as="geometry" />
        </mxCell>
        <mxCell id="xKXgVrUjVkph2GvwJkYo-27" value="ByteCode.java" style="rounded=0;whiteSpace=wrap;html=1;strokeColor=#3333FF;shadow=0;" parent="WIyWlLk6GJQsqaUBKTNV-1" vertex="1">
          <mxGeometry x="790" y="70" width="120" height="60" as="geometry" />
        </mxCell>
        <mxCell id="xKXgVrUjVkph2GvwJkYo-28" value="BopCode.java" style="rounded=0;whiteSpace=wrap;html=1;strokeColor=#3333FF;shadow=0;" parent="WIyWlLk6GJQsqaUBKTNV-1" vertex="1">
          <mxGeometry x="630" y="70" width="120" height="60" as="geometry" />
        </mxCell>
        <mxCell id="xKXgVrUjVkph2GvwJkYo-29" value="ReturnCode.java" style="rounded=0;whiteSpace=wrap;html=1;strokeColor=#3333FF;shadow=0;" parent="WIyWlLk6GJQsqaUBKTNV-1" vertex="1">
          <mxGeometry x="420" y="330" width="120" height="60" as="geometry" />
        </mxCell>
        <mxCell id="xKXgVrUjVkph2GvwJkYo-30" value="LoadCode.java" style="rounded=0;whiteSpace=wrap;html=1;strokeColor=#3333FF;shadow=0;" parent="WIyWlLk6GJQsqaUBKTNV-1" vertex="1">
          <mxGeometry x="560" y="510" width="120" height="60" as="geometry" />
        </mxCell>
        <mxCell id="xKXgVrUjVkph2GvwJkYo-31" value="PopCode.java" style="rounded=0;whiteSpace=wrap;html=1;strokeColor=#3333FF;shadow=0;" parent="WIyWlLk6GJQsqaUBKTNV-1" vertex="1">
          <mxGeometry x="420" y="510" width="120" height="60" as="geometry" />
        </mxCell>
        <mxCell id="xKXgVrUjVkph2GvwJkYo-32" value="CallCode.java" style="rounded=0;whiteSpace=wrap;html=1;strokeColor=#3333FF;shadow=0;" parent="WIyWlLk6GJQsqaUBKTNV-1" vertex="1">
          <mxGeometry x="980" y="70" width="120" height="60" as="geometry" />
        </mxCell>
        <mxCell id="xKXgVrUjVkph2GvwJkYo-33" value="LitCode.java" style="rounded=0;whiteSpace=wrap;html=1;strokeColor=#3333FF;shadow=0;" parent="WIyWlLk6GJQsqaUBKTNV-1" vertex="1">
          <mxGeometry x="690" y="510" width="120" height="60" as="geometry" />
        </mxCell>
        <mxCell id="xKXgVrUjVkph2GvwJkYo-34" value="JumpCode.java" style="rounded=0;whiteSpace=wrap;html=1;strokeColor=#3333FF;shadow=0;" parent="WIyWlLk6GJQsqaUBKTNV-1" vertex="1">
          <mxGeometry x="980" y="510" width="120" height="60" as="geometry" />
        </mxCell>
        <mxCell id="xKXgVrUjVkph2GvwJkYo-35" value="LabelCode.java" style="rounded=0;whiteSpace=wrap;html=1;strokeColor=#3333FF;shadow=0;" parent="WIyWlLk6GJQsqaUBKTNV-1" vertex="1">
          <mxGeometry x="827" y="510" width="120" height="60" as="geometry" />
        </mxCell>
        <mxCell id="xKXgVrUjVkph2GvwJkYo-36" value="FalsebranchCode.java" style="rounded=0;whiteSpace=wrap;html=1;strokeColor=#3333FF;shadow=0;" parent="WIyWlLk6GJQsqaUBKTNV-1" vertex="1">
          <mxGeometry x="980" y="240" width="120" height="60" as="geometry" />
        </mxCell>
        <mxCell id="xKXgVrUjVkph2GvwJkYo-37" value="Dbg.java" style="rounded=0;whiteSpace=wrap;html=1;strokeColor=#3333FF;shadow=0;" parent="WIyWlLk6GJQsqaUBKTNV-1" vertex="1">
          <mxGeometry x="980" y="160" width="120" height="60" as="geometry" />
        </mxCell>
        <mxCell id="xKXgVrUjVkph2GvwJkYo-38" value="GotoCode.java" style="rounded=0;whiteSpace=wrap;html=1;strokeColor=#3333FF;shadow=0;" parent="WIyWlLk6GJQsqaUBKTNV-1" vertex="1">
          <mxGeometry x="980" y="330" width="120" height="60" as="geometry" />
        </mxCell>
        <mxCell id="xKXgVrUjVkph2GvwJkYo-39" value="HaltCode.java" style="rounded=0;whiteSpace=wrap;html=1;strokeColor=#3333FF;shadow=0;" parent="WIyWlLk6GJQsqaUBKTNV-1" vertex="1">
          <mxGeometry x="980" y="420" width="120" height="60" as="geometry" />
        </mxCell>
        <mxCell id="HlyHnyiYGs_CymbgIFr4-0" value="ReadCode.java" style="rounded=0;whiteSpace=wrap;html=1;strokeColor=#3333FF;shadow=0;" vertex="1" parent="WIyWlLk6GJQsqaUBKTNV-1">
          <mxGeometry x="420" y="420" width="120" height="60" as="geometry" />
        </mxCell>
        <mxCell id="HlyHnyiYGs_CymbgIFr4-1" value="StoreCode.java" style="rounded=0;whiteSpace=wrap;html=1;strokeColor=#3333FF;shadow=0;" vertex="1" parent="WIyWlLk6GJQsqaUBKTNV-1">
          <mxGeometry x="420" y="240" width="120" height="60" as="geometry" />
        </mxCell>
        <mxCell id="HlyHnyiYGs_CymbgIFr4-3" value="WriteCode.java" style="rounded=0;whiteSpace=wrap;html=1;strokeColor=#3333FF;shadow=0;" vertex="1" parent="WIyWlLk6GJQsqaUBKTNV-1">
          <mxGeometry x="420" y="160" width="120" height="60" as="geometry" />
        </mxCell>
      </root>
    </mxGraphModel>
  </diagram>
</mxfile>
